<svg xmlns="http://www.w3.org/2000/svg" width="1em" height="1em" viewBox="0 0 24 24"><path fill="currentColor" d="M19.379 15.106A8.001 8.001 0 0 0 8.035 5.056l-.993-1.737a9.996 9.996 0 0 1 9.962.023c4.49 2.593 6.21 8.143 4.118 12.77l1.341.775l-4.165 2.214l-.165-4.714l1.246.719ZM4.629 8.9a8.001 8.001 0 0 0 11.345 10.05l.992 1.737a9.995 9.995 0 0 1-9.962-.024C2.514 18.07.794 12.52 2.887 7.893L1.545 7.12L5.71 4.905l.165 4.714l-1.245-.72Zm8.375 4.638h3v2h-3v2h-2v-2h-3v-2h3v-1h-3v-2h2.586L8.469 8.417l1.414-1.414l2.121 2.121l2.122-2.121l1.414 1.414l-2.122 2.121h2.586v2h-3v1Z"/></svg>