<svg height="200px" width="200px" version="1.1" id="Layer_1" xmlns="http://www.w3.org/2000/svg" xmlns:xlink="http://www.w3.org/1999/xlink" viewBox="0 0 512 512" xml:space="preserve" fill="#000000" stroke="#000000" stroke-width="1.024" transform="rotate(0)"><g id="SVGRepo_bgCarrier" stroke-width="0"></g><g id="SVGRepo_tracerCarrier" stroke-linecap="round" stroke-linejoin="round"></g><g id="SVGRepo_iconCarrier"> <g transform="translate(1 1)"> <path style="fill:#FFFFFF;" d="M484.517,502.172H104.931c-24.717,0-44.138-19.421-44.138-44.138l0,0 c0-24.717,19.421-44.138,44.138-44.138h379.586V502.172z"></path> <path style="fill:#f0bf7a;" d="M484.517,502.172H131.414c-24.717,0-44.138-19.421-44.138-44.138l0,0 c0-24.717,19.421-44.138,44.138-44.138h353.103V502.172z"></path> <path style="fill:#f0bf7a;" d="M428.903,7.828H148.186c-14.124,0-25.6,11.476-25.6,25.6v89.159c-19.421,0-35.31,15.89-35.31,35.31 c0,10.593,4.414,20.303,12.359,26.483c-7.945,6.179-12.359,15.89-12.359,26.483c0,10.593,4.414,20.303,12.359,26.483 c-7.945,6.179-12.359,15.89-12.359,26.483c0,10.593,4.414,20.303,12.359,26.483c-7.945,6.179-12.359,15.89-12.359,26.483 c0,19.421,15.89,35.31,35.31,35.31v61.793c0,6.179,19.421,0,44.138,0h291.31V36.959C458.034,21.069,444.793,7.828,428.903,7.828"></path> <path style="fill:#FD9808;" d="M455.386,7.828h-26.483c15.89,0,29.131,13.241,29.131,29.131v465.214h26.483V36.959 C484.517,21.069,471.276,7.828,455.386,7.828"></path> <path style="fill:#f0bf7a;" d="M87.276,413.897h44.138V7.828h-18.538c-14.124,0-25.6,11.476-25.6,25.6v89.159 c-19.421,0-35.31,15.89-35.31,35.31c0,10.593,4.414,20.303,12.359,26.483c-7.945,6.179-12.359,15.89-12.359,26.483 c0,10.593,4.414,20.303,12.359,26.483c-7.945,6.179-12.359,15.89-12.359,26.483c0,10.593,4.414,20.303,12.359,26.483 c-7.945,6.179-12.359,15.89-12.359,26.483c0,19.421,15.89,35.31,35.31,35.31V413.897z"></path> <g> <path style="fill:#FFFFFF;" d="M87.276,352.103c-19.421,0-35.31-15.89-35.31-35.31c0-10.593,4.414-20.303,12.359-26.483 c-7.945-6.179-12.359-15.89-12.359-26.483c0-10.593,4.414-20.303,12.359-26.483c-7.945-6.179-12.359-15.89-12.359-26.483 c0-10.593,4.414-20.303,12.359-26.483c-7.945-6.179-12.359-15.89-12.359-26.483c0-19.421,15.89-35.31,35.31-35.31V33.428 c0-14.124,11.476-25.6,25.6-25.6H86.393c-14.124,0-25.6,11.476-25.6,25.6v89.159c-19.421,0-35.31,15.89-35.31,35.31 c0,10.593,4.414,20.303,12.359,26.483c-7.945,6.179-12.359,15.89-12.359,26.483c0,10.593,4.414,20.303,12.359,26.483 c-7.945,6.179-12.359,15.89-12.359,26.483c0,10.593,4.414,20.303,12.359,26.483c-7.945,6.179-12.359,15.89-12.359,26.483 c0,19.421,15.89,35.31,35.31,35.31v105.931c0-17.655,10.593-33.545,26.483-40.607V352.103z"></path> <path style="fill:#FFFFFF;" d="M104.931,413.897c-2.648,0-4.414,0-6.179,0.883C100.517,413.897,103.166,413.897,104.931,413.897"></path> </g> <path d="M493.345,511H104.931c-29.131,0-52.966-23.835-52.966-52.966c0-29.131,23.834-52.966,52.966-52.966h388.414V511z M104.931,422.724c-19.421,0-35.31,15.89-35.31,35.31c0,19.421,15.89,35.31,35.31,35.31H475.69v-70.621H104.931z"></path> <path d="M140.241,466.862H96.103c-5.297,0-8.828-3.531-8.828-8.828s3.531-8.828,8.828-8.828h44.138 c5.297,0,8.828,3.531,8.828,8.828S145.538,466.862,140.241,466.862z"></path> <path d="M378.586,466.862H175.552c-5.297,0-8.828-3.531-8.828-8.828s3.531-8.828,8.828-8.828h203.034 c5.297,0,8.828,3.531,8.828,8.828S383.883,466.862,378.586,466.862z"></path> <path d="M484.517,449.207h-35.31c-5.297,0-8.828-3.531-8.828-8.828s3.531-8.828,8.828-8.828h35.31c5.297,0,8.828,3.531,8.828,8.828 S489.814,449.207,484.517,449.207z"></path> <path d="M484.517,484.517h-35.31c-5.297,0-8.828-3.531-8.828-8.828s3.531-8.828,8.828-8.828h35.31c5.297,0,8.828,3.531,8.828,8.828 S489.814,484.517,484.517,484.517z"></path> <path d="M60.793,360.931c-24.717,0-44.138-19.421-44.138-44.138c0-24.717,19.421-44.138,44.138-44.138s44.138,19.421,44.138,44.138 c0,5.297-3.531,8.828-8.828,8.828s-8.828-3.531-8.828-8.828c0-15.007-11.476-26.483-26.483-26.483S34.31,301.786,34.31,316.793 c0,15.007,11.476,26.483,26.483,26.483c5.297,0,8.828,3.531,8.828,8.828S66.09,360.931,60.793,360.931z"></path> <path d="M37.841,301.786l-6.179-5.297c-9.71-7.945-15.007-20.303-15.007-32.662c0-24.717,19.421-44.138,44.138-44.138 s44.138,19.421,44.138,44.138c0,5.297-3.531,8.828-8.828,8.828s-8.828-3.531-8.828-8.828c0-15.007-11.476-26.483-26.483-26.483 S34.31,248.821,34.31,263.828c0,5.297,1.766,10.593,4.414,15.007c15.89-8.828,37.076-7.062,51.2,5.297 c3.531,3.531,4.414,8.828,0.883,12.359c-3.531,3.531-8.828,4.414-12.359,0.883c-3.531-3.531-9.71-7.062-17.655-7.062 s-14.124,3.531-17.655,7.062L37.841,301.786z"></path> <path d="M37.841,248.821l-6.179-5.297c-9.71-7.945-15.007-20.303-15.007-32.662c0-24.717,19.421-44.138,44.138-44.138 s44.138,19.421,44.138,44.138c0,5.297-3.531,8.828-8.828,8.828s-8.828-3.531-8.828-8.828c0-15.007-11.476-26.483-26.483-26.483 S34.31,195.855,34.31,210.862c0,5.297,1.766,10.593,4.414,15.007c15.89-8.828,37.076-7.062,51.2,5.297 c3.531,3.531,4.414,8.828,0.883,12.359c-3.531,3.531-8.828,4.414-12.359,0.883c-3.531-3.531-9.71-7.062-17.655-7.062 s-14.124,3.531-17.655,7.062L37.841,248.821z"></path> <path d="M37.841,195.855l-6.179-5.297c-9.71-7.945-15.007-20.303-15.007-32.662c0-24.717,19.421-44.138,44.138-44.138 s44.138,19.421,44.138,44.138c0,5.297-3.531,8.828-8.828,8.828s-8.828-3.531-8.828-8.828c0-15.007-11.476-26.483-26.483-26.483 S34.31,142.89,34.31,157.897c0,5.297,1.766,10.593,4.414,15.007c15.89-8.828,37.076-7.062,51.2,5.297 c3.531,3.531,4.414,8.828,0.883,12.359c-3.531,3.531-8.828,4.414-12.359,0.883c-3.531-3.531-9.71-7.062-17.655-7.062 s-14.124,3.531-17.655,7.062L37.841,195.855z"></path> <path d="M69.621,458.034H51.966v-97.986c-20.303-4.414-35.31-22.069-35.31-43.255c0-9.71,3.531-18.538,8.828-26.483 c-6.179-7.945-8.828-16.772-8.828-26.483c0-9.71,3.531-18.538,8.828-26.483c-6.179-7.945-8.828-16.772-8.828-26.483 c0-9.71,3.531-18.538,8.828-26.483c-6.179-7.945-8.828-16.772-8.828-26.483c0-21.186,15.007-38.841,35.31-43.255V33.428 C51.966,14.89,67.855-1,86.393-1h368.993c21.186,0,37.959,16.772,37.959,37.959v385.766H104.931 C85.51,422.724,69.621,438.614,69.621,458.034z M60.793,131.414c-15.007,0-26.483,11.476-26.483,26.483 c0,7.945,3.531,15.007,8.828,19.421l7.945,7.062l-7.945,7.062c-6.179,5.297-8.828,12.359-8.828,19.421 c0,7.062,3.531,15.007,8.828,19.421l7.945,7.062l-7.945,7.062c-6.179,5.297-8.828,12.359-8.828,19.421 c0,7.945,3.531,15.007,8.828,19.421l7.945,7.062l-7.945,7.062c-6.179,5.297-8.828,12.359-8.828,19.421 c0,15.007,11.476,26.483,26.483,26.483h8.828v75.034c9.71-8.828,22.069-13.241,35.31-13.241H475.69V36.959 c0-11.476-8.828-20.303-20.303-20.303H86.393c-8.828,0-16.772,7.945-16.772,16.772v97.986H60.793z"></path> <path d="M60.793,360.931c-5.297,0-8.828-3.531-8.828-8.828v-26.483c0-5.297,3.531-8.828,8.828-8.828s8.828,3.531,8.828,8.828 v26.483C69.621,357.4,66.09,360.931,60.793,360.931z"></path> <path d="M69.621,458.034H51.966v-97.986c-20.303-4.414-35.31-22.069-35.31-43.255c0-9.71,3.531-18.538,8.828-26.483 c-6.179-7.945-8.828-16.772-8.828-26.483c0-9.71,3.531-18.538,8.828-26.483c-6.179-7.945-8.828-16.772-8.828-26.483 c0-9.71,3.531-18.538,8.828-26.483c-6.179-7.945-8.828-16.772-8.828-26.483c0-21.186,15.007-38.841,35.31-43.255V33.428 C51.966,14.89,67.855-1,86.393-1h53.848v423.724h-35.31C85.51,422.724,69.621,438.614,69.621,458.034z M60.793,131.414 c-15.007,0-26.483,11.476-26.483,26.483c0,7.945,3.531,15.007,8.828,19.421l7.945,7.062l-7.945,7.062 c-6.179,5.297-8.828,12.359-8.828,19.421c0,7.062,3.531,15.007,8.828,19.421l7.945,7.062l-7.945,7.062 c-6.179,5.297-8.828,12.359-8.828,19.421c0,7.062,3.531,15.007,8.828,19.421l7.945,7.062l-7.945,7.062 c-6.179,5.297-8.828,12.359-8.828,19.421c0,15.007,11.476,26.483,26.483,26.483h8.828v75.034 c9.71-8.828,22.069-13.241,35.31-13.241h17.655V16.655H86.393c-8.828,0-16.772,7.945-16.772,16.772v97.986H60.793z"></path> <path style="fill:#f2ef36;" d="M420.076,175.552H195.855c-6.179,0-11.476-5.297-11.476-11.476V81.097 c0-6.179,5.297-11.476,11.476-11.476h223.338c7.062,0,12.359,5.297,12.359,11.476v82.097 C431.552,170.255,426.255,175.552,420.076,175.552"></path> <path style="fill:#f2ef36;" d="M393.593,175.552H195.855c-6.179,0-11.476-5.297-11.476-11.476V81.097 c0-6.179,5.297-11.476,11.476-11.476H392.71c7.062,0,12.359,5.297,12.359,11.476v82.097 C405.069,170.255,399.772,175.552,393.593,175.552"></path> <path d="M420.076,184.379H195.855c-11.476,0-20.303-8.828-20.303-20.303V81.097c0-11.476,8.828-20.303,20.303-20.303h223.338 c12.359,0,21.186,8.828,21.186,20.303v82.097C440.379,175.552,431.552,184.379,420.076,184.379z M195.855,78.448 c-1.766,0-2.648,1.766-2.648,2.648v82.097c0,1.766,0.883,2.648,2.648,2.648h223.338c1.766,0,2.648-0.883,2.648-2.648V81.097 c0.883-0.883,0-2.648-1.766-2.648H195.855z"></path> <path d="M360.931,334.448H255c-5.297,0-8.828-3.531-8.828-8.828s3.531-8.828,8.828-8.828h105.931c5.297,0,8.828,3.531,8.828,8.828 S366.228,334.448,360.931,334.448z"></path> <path d="M396.241,369.759H219.69c-5.297,0-8.828-3.531-8.828-8.828s3.531-8.828,8.828-8.828h176.552 c5.297,0,8.828,3.531,8.828,8.828S401.538,369.759,396.241,369.759z"></path> </g> </g></svg>
